<svg width="414" height="321" viewBox="0 0 414 321" fill="none" xmlns="http://www.w3.org/2000/svg">
<g clip-path="url(#clip0_4_2)">
<path d="M101 84C102.793 88.93 102.5 89 104 94" stroke="black" stroke-width="5.235" stroke-linecap="round"/>
<path d="M104 94C104.944 99.511 105.293 99.43 106 105" stroke="black" stroke-width="3.86" stroke-linecap="round"/>
<path d="M106 105C107.147 112.587 107.444 112.511 109 120" stroke="black" stroke-width="3.039" stroke-linecap="round"/>
<path d="M109 120C112.147 128.354 111.147 128.587 114 137" stroke="black" stroke-width="2.834" stroke-linecap="round"/>
<path d="M114 137C115.411 149.629 116.647 149.354 118 162" stroke="black" stroke-width="2.467" stroke-linecap="round"/>
<path d="M118 162C121.372 170.881 119.911 171.129 123 180" stroke="black" stroke-width="2.612" stroke-linecap="round"/>
<path d="M123 180C123 185 123.872 184.881 123 190" stroke="black" stroke-width="3.242" stroke-linecap="round"/>
<path d="M123 190C122.541 193.557 123 193.5 123 197" stroke="black" stroke-width="4.481" stroke-linecap="round"/>
<path d="M123 197C123.621 201.14 123.541 201.057 125 205" stroke="black" stroke-width="3.913" stroke-linecap="round"/>
<path d="M125 205C126.864 207.875 126.121 208.14 128 211" stroke="black" stroke-width="3.948" stroke-linecap="round"/>
<path d="M128 211C130.228 214.246 128.864 213.375 129 216" stroke="black" stroke-width="4.553" stroke-linecap="round"/>
<path d="M129 216C125.165 218.808 126.728 219.246 121 221" stroke="black" stroke-width="5.115" stroke-linecap="round"/>
<path d="M121 221C115.475 223.445 115.665 223.808 110 226" stroke="black" stroke-width="3.683" stroke-linecap="round"/>
<path d="M110 226C100.081 229.753 100.475 230.445 91 235" stroke="black" stroke-width="2.779" stroke-linecap="round"/>
<path d="M91 235C78.768 244.995 77.581 242.753 65 252" stroke="black" stroke-width="2.11" stroke-linecap="round"/>
<path d="M65 252C49.297 257.528 50.268 259.495 34 264" stroke="black" stroke-width="1.904" stroke-linecap="round"/>
<path d="M34 264C23.398 268.801 23.297 268.528 13 274" stroke="black" stroke-width="2.211" stroke-linecap="round"/>
<path d="M98 160C95 160 95 160 92 160" stroke="black" stroke-width="5.212" stroke-linecap="round"/>
<path d="M92 160C86.5 160 86.5 160 81 160" stroke="black" stroke-width="4.475" stroke-linecap="round"/>
<path d="M81 160C75.5 160 75.5 160 70 160" stroke="black" stroke-width="3.676" stroke-linecap="round"/>
<path d="M70 160C63 160 63 160 56 160" stroke="black" stroke-width="3.302" stroke-linecap="round"/>
<path d="M56 160C48 160 48 160 40 160" stroke="black" stroke-width="2.943" stroke-linecap="round"/>
<path d="M40 160C31.5 160 31.5 160 23 160" stroke="black" stroke-width="2.851" stroke-linecap="round"/>
<path d="M23 160C14.904 160.687 15 160 7 160" stroke="black" stroke-width="2.883" stroke-linecap="round"/>
<path d="M7 160C-0.657 159.972 3.404 159.687 0 158" stroke="black" stroke-width="3.587" stroke-linecap="round"/>
<path d="M0 158C4.693 151.697 1.343 153.972 11 148" stroke="black" stroke-width="4.491" stroke-linecap="round"/>
<path d="M11 148C20.049 144.623 19.193 143.197 29 141" stroke="black" stroke-width="3.006" stroke-linecap="round"/>
<path d="M29 141C41.103 136.235 41.049 136.123 53 131" stroke="black" stroke-width="2.345" stroke-linecap="round"/>
<path d="M53 131C66.338 125.653 66.103 125.235 79 119" stroke="black" stroke-width="2.164" stroke-linecap="round"/>
<path d="M79 119C95.075 108.622 95.838 110.153 112 100" stroke="black" stroke-width="1.9" stroke-linecap="round"/>
<path d="M112 100C122.343 96.705 121.575 95.122 132 92" stroke="black" stroke-width="2.223" stroke-linecap="round"/>
<path d="M132 92C141.5 86.5 141.843 87.205 151 81" stroke="black" stroke-width="2.38" stroke-linecap="round"/>
<path d="M151 81C160.469 75.446 160.5 75.5 170 70" stroke="black" stroke-width="2.486" stroke-linecap="round"/>
<path d="M170 70C178.42 66.053 177.969 65.446 186 61" stroke="black" stroke-width="2.578" stroke-linecap="round"/>
<path d="M186 61C188.095 57.743 188.92 59.053 191 56" stroke="black" stroke-width="3.418" stroke-linecap="round"/>
<path d="M191 56C194.505 53.692 193.095 54.743 196 55" stroke="black" stroke-width="4.331" stroke-linecap="round"/>
<path d="M196 55C199 59.079 198.505 57.192 199 63" stroke="black" stroke-width="4.975" stroke-linecap="round"/>
<path d="M199 63C197.662 66.091 199 66.079 196 69" stroke="black" stroke-width="4.276" stroke-linecap="round"/>
<path d="M196 69C193.192 72.835 193.662 73.091 191 77" stroke="black" stroke-width="3.849" stroke-linecap="round"/>
<path d="M191 77C188.84 82.675 188.192 82.335 186 88" stroke="black" stroke-width="3.374" stroke-linecap="round"/>
<path d="M186 88C181.189 97.975 180.84 97.675 175 107" stroke="black" stroke-width="2.673" stroke-linecap="round"/>
<path d="M175 107C167.404 114.307 169.189 115.475 162 123" stroke="black" stroke-width="2.519" stroke-linecap="round"/>
<path d="M162 123C157.655 133.88 155.904 132.807 152 144" stroke="black" stroke-width="2.417" stroke-linecap="round"/>
<path d="M152 144C147.258 150.346 148.155 150.88 143 157" stroke="black" stroke-width="2.745" stroke-linecap="round"/>
<path d="M143 157C139.23 162.864 139.258 162.846 136 169" stroke="black" stroke-width="2.981" stroke-linecap="round"/>
<path d="M136 169C133.133 177.857 134.23 172.364 133 176" stroke="black" stroke-width="3.561" stroke-linecap="round"/>
<path d="M133 176C133.407 165.356 132.633 170.857 135 155" stroke="black" stroke-width="4.529" stroke-linecap="round"/>
<path d="M135 155C135.32 151.921 135.407 152.356 137 150" stroke="black" stroke-width="4.3" stroke-linecap="round"/>
<path d="M137 150C139.5 148.5 138.82 147.921 142 147" stroke="black" stroke-width="4.625" stroke-linecap="round"/>
<path d="M142 147C144.308 144.207 144.5 145.5 147 144" stroke="black" stroke-width="5.057" stroke-linecap="round"/>
<path d="M147 144C152.122 143.602 150.808 143.707 155 146" stroke="black" stroke-width="4.885" stroke-linecap="round"/>
<path d="M155 146C157.243 149.899 158.122 148.602 159 154" stroke="black" stroke-width="3.915" stroke-linecap="round"/>
<path d="M159 154C159.89 157.04 160.243 156.899 161 160" stroke="black" stroke-width="4.043" stroke-linecap="round"/>
<path d="M161 160C162.843 165.07 162.89 165.04 165 170" stroke="black" stroke-width="4.337" stroke-linecap="round"/>
<path d="M165 170C165.727 174.011 166.343 173.07 168 176" stroke="black" stroke-width="4.861" stroke-linecap="round"/>
<path d="M168 176C170.867 177.711 169.727 177.511 173 177" stroke="black" stroke-width="5.278" stroke-linecap="round"/>
<path d="M173 177C174.751 174.687 175.367 176.211 177 173" stroke="black" stroke-width="4.951" stroke-linecap="round"/>
<path d="M177 173C181.817 171.183 180.751 170.187 185 168" stroke="black" stroke-width="4.594" stroke-linecap="round"/>
<path d="M185 168C185.799 165.403 186.817 166.183 187 163" stroke="black" stroke-width="4.317" stroke-linecap="round"/>
<path d="M187 163C189.201 159.597 188.799 159.403 191 156" stroke="black" stroke-width="3.953" stroke-linecap="round"/>
<path d="M191 156C192.565 153.609 192.201 153.597 193 151" stroke="black" stroke-width="4.545" stroke-linecap="round"/>
<path d="M193 151C193 147.5 193.565 147.609 193 144" stroke="black" stroke-width="4.628" stroke-linecap="round"/>
<path d="M193 144C193.452 137.774 193 141 193 138" stroke="black" stroke-width="4.89" stroke-linecap="round"/>
<path d="M193 138C191.548 141.437 192.452 138.274 191 145" stroke="black" stroke-width="5.211" stroke-linecap="round"/>
<path d="M191 145C191 148 190.548 147.937 191 151" stroke="black" stroke-width="4.886" stroke-linecap="round"/>
<path d="M191 151C190.695 155.03 191 155 191 159" stroke="black" stroke-width="4.649" stroke-linecap="round"/>
<path d="M191 159C190.392 162.851 191.195 161.53 192 164" stroke="black" stroke-width="5.043" stroke-linecap="round"/>
<path d="M192 164C195.227 164.853 193.892 165.351 198 164" stroke="black" stroke-width="5.021" stroke-linecap="round"/>
<path d="M198 164C203.243 163.012 201.727 162.853 205 160" stroke="black" stroke-width="4.66" stroke-linecap="round"/>
<path d="M205 160C205 156 206.743 157.012 205 152" stroke="black" stroke-width="4.585" stroke-linecap="round"/>
<path d="M205 152C205.213 148.987 205 149 205 146" stroke="black" stroke-width="4.277" stroke-linecap="round"/>
<path d="M205 146C202.807 137.602 204.713 141.987 204 138" stroke="black" stroke-width="4.462" stroke-linecap="round"/>
<path d="M204 138C207.615 142.923 205.807 138.602 211 148" stroke="black" stroke-width="4.92" stroke-linecap="round"/>
<path d="M211 148C214.594 153.442 214.615 153.423 218 159" stroke="black" stroke-width="4.263" stroke-linecap="round"/>
<path d="M218 159C223.821 169.113 224.094 168.942 230 179" stroke="black" stroke-width="2.808" stroke-linecap="round"/>
<path d="M230 179C233.883 185.082 233.821 185.113 238 191" stroke="black" stroke-width="2.912" stroke-linecap="round"/>
<path d="M238 191C241.811 196.647 241.883 196.582 246 202" stroke="black" stroke-width="3.058" stroke-linecap="round"/>
<path d="M246 202C251.324 207.765 250.811 208.147 256 214" stroke="black" stroke-width="2.907" stroke-linecap="round"/>
<path d="M256 214C259.157 217.7 258.824 217.765 261 222" stroke="black" stroke-width="3.37" stroke-linecap="round"/>
<path d="M261 222C262.008 229.016 263.657 228.2 265 235" stroke="black" stroke-width="3.195" stroke-linecap="round"/>
<path d="M265 235C269.118 239.124 267.508 240.016 272 244" stroke="black" stroke-width="3.257" stroke-linecap="round"/>
<path d="M272 244C275.344 250.36 275.618 250.124 278 257" stroke="black" stroke-width="3.112" stroke-linecap="round"/>
<path d="M278 257C281.414 265.38 281.344 265.36 284 274" stroke="black" stroke-width="2.834" stroke-linecap="round"/>
<path d="M284 274C285.786 280.447 285.914 280.38 287 287" stroke="black" stroke-width="2.993" stroke-linecap="round"/>
<path d="M287 287C288.389 293.972 288.286 293.947 289 301" stroke="black" stroke-width="3.047" stroke-linecap="round"/>
<path d="M289 301C289 305.5 289.389 305.472 289 310" stroke="black" stroke-width="3.414" stroke-linecap="round"/>
<path d="M289 310C290.596 315.808 289 314.5 289 319" stroke="black" stroke-width="4.061" stroke-linecap="round"/>
<path d="M289 319C286.535 319.851 288.096 320.808 284 320" stroke="black" stroke-width="4.651" stroke-linecap="round"/>
<path d="M284 320C277.988 320.26 278.035 320.351 272 320" stroke="black" stroke-width="3.613" stroke-linecap="round"/>
<path d="M272 320C266.307 320.327 266.488 319.76 261 319" stroke="black" stroke-width="3.468" stroke-linecap="round"/>
<path d="M261 319C254.017 317.309 254.307 317.327 248 314" stroke="black" stroke-width="3.132" stroke-linecap="round"/>
<path d="M248 314C244.658 310.797 244.017 311.809 241 308" stroke="black" stroke-width="3.476" stroke-linecap="round"/>
<path d="M241 308C235.574 304.964 236.158 304.297 231 301" stroke="black" stroke-width="3.271" stroke-linecap="round"/>
<path d="M231 301C227.518 298.47 228.074 298.464 226 295" stroke="black" stroke-width="3.659" stroke-linecap="round"/>
<path d="M226 295C224.583 290.054 224.018 290.47 224 285" stroke="black" stroke-width="3.558" stroke-linecap="round"/>
<path d="M224 285C223.267 277.007 223.083 277.054 223 269" stroke="black" stroke-width="2.999" stroke-linecap="round"/>
<path d="M223 269C222.519 261.968 222.767 262.007 223 255" stroke="black" stroke-width="3.058" stroke-linecap="round"/>
<path d="M223 255C224.141 247.516 223.519 247.468 225 240" stroke="black" stroke-width="3" stroke-linecap="round"/>
<path d="M225 240C226.117 230.01 226.141 230.016 227 220" stroke="black" stroke-width="2.691" stroke-linecap="round"/>
<path d="M227 220C226.373 212.741 227.617 213.01 228 206" stroke="black" stroke-width="2.898" stroke-linecap="round"/>
<path d="M228 206C231.689 198.705 229.873 198.241 234 191" stroke="black" stroke-width="2.888" stroke-linecap="round"/>
<path d="M234 191C235.881 183.554 236.189 183.705 237 176" stroke="black" stroke-width="2.879" stroke-linecap="round"/>
<path d="M237 176C236.609 169.796 237.881 170.054 238 164" stroke="black" stroke-width="3.157" stroke-linecap="round"/>
<path d="M238 164C241.132 157.672 239.609 157.296 243 151" stroke="black" stroke-width="3.111" stroke-linecap="round"/>
<path d="M243 151C244.169 145.024 244.632 145.172 245 139" stroke="black" stroke-width="3.17" stroke-linecap="round"/>
<path d="M245 139C245.68 130.449 246.169 130.524 247 122" stroke="black" stroke-width="2.904" stroke-linecap="round"/>
<path d="M247 122C248.649 114.527 248.18 114.449 250 107" stroke="black" stroke-width="2.884" stroke-linecap="round"/>
<path d="M250 107C252.495 95.041 252.149 95.027 254 83" stroke="black" stroke-width="2.936" stroke-linecap="round"/>
<path d="M254 83C254 79 254.495 79.041 254 75" stroke="black" stroke-width="3.506" stroke-linecap="round"/>
<path d="M254 75C254 72 254 72 254 69" stroke="black" stroke-width="4.299" stroke-linecap="round"/>
<path d="M254 69C254.527 65.899 254 66 254 63" stroke="black" stroke-width="4.199" stroke-linecap="round"/>
<path d="M254 63C254.002 58.801 253.527 60.399 252 58" stroke="black" stroke-width="4.25" stroke-linecap="round"/>
<path d="M252 58C246.828 56.943 249.002 56.801 244 59" stroke="black" stroke-width="4.921" stroke-linecap="round"/>
<path d="M244 59C242.198 62.406 241.328 60.943 241 66" stroke="black" stroke-width="4.769" stroke-linecap="round"/>
<path d="M241 66C240.195 68.47 240.198 68.406 240 71" stroke="black" stroke-width="4.405" stroke-linecap="round"/>
<path d="M240 71C240 75 239.695 74.97 240 79" stroke="black" stroke-width="4.035" stroke-linecap="round"/>
<path d="M240 79C240 85 240 85 240 91" stroke="black" stroke-width="3.549" stroke-linecap="round"/>
<path d="M240 91C240 96.5 240 96.5 240 102" stroke="black" stroke-width="3.508" stroke-linecap="round"/>
<path d="M240 102C240 108 240 108 240 114" stroke="black" stroke-width="3.358" stroke-linecap="round"/>
<path d="M240 114C239.651 117.031 240 117 240 120" stroke="black" stroke-width="3.88" stroke-linecap="round"/>
<path d="M240 120C241.245 125.467 240.651 125.531 242 131" stroke="black" stroke-width="3.526" stroke-linecap="round"/>
<path d="M242 131C241.101 137.252 242.745 136.467 243 142" stroke="black" stroke-width="3.444" stroke-linecap="round"/>
<path d="M243 142C246.362 143.426 244.101 144.752 248 146" stroke="black" stroke-width="3.87" stroke-linecap="round"/>
<path d="M248 146C248.312 149.905 249.862 148.926 250 153" stroke="black" stroke-width="3.917" stroke-linecap="round"/>
<path d="M250 153C253.039 157.961 251.312 155.405 254 157" stroke="black" stroke-width="4.455" stroke-linecap="round"/>
<path d="M254 157C254.762 152.515 255.539 155.461 255 148" stroke="black" stroke-width="5.045" stroke-linecap="round"/>
<path d="M255 148C255 143 255.262 143.015 255 138" stroke="black" stroke-width="3.889" stroke-linecap="round"/>
<path d="M255 138C255 134 255 134 255 130" stroke="black" stroke-width="3.844" stroke-linecap="round"/>
<path d="M255 130C254.413 125.405 255 125.5 255 121" stroke="black" stroke-width="3.67" stroke-linecap="round"/>
<path d="M255 121C255.866 117.949 255.413 117.905 257 115" stroke="black" stroke-width="3.961" stroke-linecap="round"/>
<path d="M257 115C258.536 111.515 258.366 111.449 260 108" stroke="black" stroke-width="4.369" stroke-linecap="round"/>
<path d="M260 108C259.972 103.553 261.036 105.515 262 103" stroke="black" stroke-width="4.699" stroke-linecap="round"/>
<path d="M262 103C267.325 102.856 265.472 102.053 271 105" stroke="black" stroke-width="4.948" stroke-linecap="round"/>
<path d="M271 105C272.698 107.395 273.325 106.356 274 110" stroke="black" stroke-width="4.391" stroke-linecap="round"/>
<path d="M274 110C277.293 116.384 277.198 116.395 280 123" stroke="black" stroke-width="3.288" stroke-linecap="round"/>
<path d="M280 123C281.405 127.535 281.793 127.384 283 132" stroke="black" stroke-width="3.507" stroke-linecap="round"/>
<path d="M283 132C283.8 134.599 283.905 134.535 285 137" stroke="black" stroke-width="4.01" stroke-linecap="round"/>
<path d="M285 137C286.771 142.878 286.3 139.599 288 142" stroke="black" stroke-width="4.088" stroke-linecap="round"/>
<path d="M288 142C290.437 137.137 290.271 140.378 292 132" stroke="black" stroke-width="4.857" stroke-linecap="round"/>
<path d="M292 132C294.143 125.573 293.937 125.637 295 119" stroke="black" stroke-width="3.523" stroke-linecap="round"/>
<path d="M295 119C294.669 113.967 295.643 114.073 295 109" stroke="black" stroke-width="4.062" stroke-linecap="round"/>
<path d="M295 109C295.33 106.455 295.169 106.467 296 104" stroke="black" stroke-width="4.202" stroke-linecap="round"/>
<path d="M296 104C297.235 101.058 296.83 100.955 298 98" stroke="black" stroke-width="4.13" stroke-linecap="round"/>
<path d="M298 98C298.204 94.917 298.735 95.058 299 92" stroke="black" stroke-width="4.559" stroke-linecap="round"/>
<path d="M299 92C301 86.77 299.704 89.417 301 87" stroke="black" stroke-width="4.749" stroke-linecap="round"/>
<path d="M301 87C300.063 90.022 301 87.27 299 93" stroke="black" stroke-width="5.166" stroke-linecap="round"/>
<path d="M299 93C297.202 96.912 297.563 97.022 296 101" stroke="black" stroke-width="4.081" stroke-linecap="round"/>
<path d="M296 101C294.316 105.425 294.702 105.412 294 110" stroke="black" stroke-width="3.767" stroke-linecap="round"/>
<path d="M294 110C293.617 120.032 293.316 119.925 294 130" stroke="black" stroke-width="2.853" stroke-linecap="round"/>
<path d="M294 130C293.238 134.49 294.117 133.032 295 136" stroke="black" stroke-width="3.971" stroke-linecap="round"/>
<path d="M295 136C299.146 137.854 296.738 137.49 301 136" stroke="black" stroke-width="4.803" stroke-linecap="round"/>
<path d="M301 136C304.251 130.109 305.146 131.854 307 124" stroke="black" stroke-width="4.237" stroke-linecap="round"/>
<path d="M307 124C309.176 120.122 308.751 120.109 310 116" stroke="black" stroke-width="4.415" stroke-linecap="round"/>
<path d="M310 116C309.782 112.488 310.676 112.622 310 109" stroke="black" stroke-width="4.104" stroke-linecap="round"/>
<path d="M310 109C309.405 104.101 310.282 104.488 311 100" stroke="black" stroke-width="4.553" stroke-linecap="round"/>
<path d="M311 100C315.07 91.965 312.905 95.101 317 91" stroke="black" stroke-width="4.349" stroke-linecap="round"/>
<path d="M317 91C317 94 318.07 90.465 317 97" stroke="black" stroke-width="5.106" stroke-linecap="round"/>
<path d="M317 97C315.662 101.985 317 101.5 317 106" stroke="black" stroke-width="4.605" stroke-linecap="round"/>
<path d="M317 106C319.928 108.745 318.162 109.485 322 112" stroke="black" stroke-width="4.546" stroke-linecap="round"/>
<path d="M322 112C322.29 116.786 323.428 114.245 324 117" stroke="black" stroke-width="4.795" stroke-linecap="round"/>
<path d="M324 117C327.944 115.803 326.29 117.286 330 113" stroke="black" stroke-width="5.1" stroke-linecap="round"/>
<path d="M330 113C333.005 107.654 333.444 108.303 335 102" stroke="black" stroke-width="4.37" stroke-linecap="round"/>
<path d="M335 102C335.811 99.026 336.005 99.154 336 96" stroke="black" stroke-width="4.208" stroke-linecap="round"/>
<path d="M336 96C336 91 336.311 91.026 336 86" stroke="black" stroke-width="4.284" stroke-linecap="round"/>
<path d="M336 86C335.651 79.127 336 83 336 80" stroke="black" stroke-width="4.606" stroke-linecap="round"/>
<path d="M336 80C336.648 85.59 336.651 81.627 338 91" stroke="black" stroke-width="5.092" stroke-linecap="round"/>
<path d="M338 91C339.011 95.739 339.148 95.59 341 100" stroke="black" stroke-width="3.956" stroke-linecap="round"/>
<path d="M341 100C342.758 103.198 342.511 103.239 345 106" stroke="black" stroke-width="4.396" stroke-linecap="round"/>
<path d="M345 106C346.656 109.787 346.758 108.198 349 110" stroke="black" stroke-width="4.921" stroke-linecap="round"/>
<path d="M349 110C353.646 109.716 352.156 110.287 356 107" stroke="black" stroke-width="4.723" stroke-linecap="round"/>
<path d="M356 107C360.029 101.243 360.146 102.216 362 95" stroke="black" stroke-width="4.267" stroke-linecap="round"/>
<path d="M362 95C361.806 91.491 363.029 91.743 362 88" stroke="black" stroke-width="4.065" stroke-linecap="round"/>
<path d="M362 88C362.779 82.513 362.306 82.491 363 77" stroke="black" stroke-width="3.583" stroke-linecap="round"/>
<path d="M363 77C363 70 363.279 70.013 363 63" stroke="black" stroke-width="3.855" stroke-linecap="round"/>
<path d="M363 63C363 60 363 60 363 57" stroke="black" stroke-width="4.062" stroke-linecap="round"/>
<path d="M363 57C363 51.5 363 51.5 363 46" stroke="black" stroke-width="3.523" stroke-linecap="round"/>
<path d="M363 46C363 42.5 363 42.5 363 39" stroke="black" stroke-width="3.834" stroke-linecap="round"/>
<path d="M363 39C363 34 363 34 363 29" stroke="black" stroke-width="4.16" stroke-linecap="round"/>
<path d="M363 29C364.278 24.09 363 24.5 363 20" stroke="black" stroke-width="4.375" stroke-linecap="round"/>
<path d="M363 20C360.684 16.355 361.778 16.09 358 13" stroke="black" stroke-width="4.87" stroke-linecap="round"/>
<path d="M358 13C354.603 8.903 354.684 8.855 351 5" stroke="black" stroke-width="4.706" stroke-linecap="round"/>
<path d="M351 5C347.433 -1.024 348.603 2.403 346 0" stroke="black" stroke-width="5.024" stroke-linecap="round"/>
<path d="M346 0C344.405 4.941 343.933 1.476 344 10" stroke="black" stroke-width="5.255" stroke-linecap="round"/>
<path d="M344 10C344 17.5 343.405 17.441 344 25" stroke="black" stroke-width="3.432" stroke-linecap="round"/>
<path d="M344 25C344 32 344 32 344 39" stroke="black" stroke-width="3.118" stroke-linecap="round"/>
<path d="M344 39C344 45 344 45 344 51" stroke="black" stroke-width="3.294" stroke-linecap="round"/>
<path d="M344 51C344 57 344 57 344 63" stroke="black" stroke-width="3.296" stroke-linecap="round"/>
<path d="M344 63C343.649 69.035 344 69 344 75" stroke="black" stroke-width="3.297" stroke-linecap="round"/>
<path d="M344 75C344.27 77.568 344.149 77.535 345 80" stroke="black" stroke-width="3.956" stroke-linecap="round"/>
<path d="M345 80C345.887 82.551 345.77 82.568 347 85" stroke="black" stroke-width="4.172" stroke-linecap="round"/>
<path d="M347 85C348.053 88.322 348.387 88.051 350 91" stroke="black" stroke-width="4.12" stroke-linecap="round"/>
<path d="M350 91C351.985 94.744 352.053 93.822 355 96" stroke="black" stroke-width="4.646" stroke-linecap="round"/>
<path d="M355 96C358.5 96 357.985 97.244 362 96" stroke="black" stroke-width="4.744" stroke-linecap="round"/>
<path d="M362 96C365.052 96.421 365 96 368 96" stroke="black" stroke-width="4.77" stroke-linecap="round"/>
<path d="M368 96C372.836 96.26 372.052 95.421 376 94" stroke="black" stroke-width="3.977" stroke-linecap="round"/>
<path d="M376 94C378.526 89.474 379.836 91.26 382 86" stroke="black" stroke-width="3.662" stroke-linecap="round"/>
<path d="M382 86C384.617 84.668 384.026 83.974 387 83" stroke="black" stroke-width="4.015" stroke-linecap="round"/>
<path d="M179 226C182.136 226.661 182 226 185 226" stroke="black" stroke-width="5.344" stroke-linecap="round"/>
<path d="M185 226C188.438 224.336 188.636 225.161 192 223" stroke="black" stroke-width="4.471" stroke-linecap="round"/>
<path d="M192 223C196.612 221.788 196.438 221.336 201 220" stroke="black" stroke-width="3.832" stroke-linecap="round"/>
<path d="M201 220C209.729 215.272 210.112 216.288 219 212" stroke="black" stroke-width="2.882" stroke-linecap="round"/>
<path d="M219 212C235.401 206.654 235.229 206.272 252 202" stroke="black" stroke-width="1.943" stroke-linecap="round"/>
<path d="M252 202C289.037 192.135 288.901 191.654 326 182" stroke="black" stroke-width="1.143" stroke-linecap="round"/>
<path d="M326 182C351.038 175.132 351.037 175.135 376 168" stroke="black" stroke-width="1.304" stroke-linecap="round"/>
<path d="M376 168C392.91 162.585 393.038 163.132 410 158" stroke="black" stroke-width="1.668" stroke-linecap="round"/>
<path d="M412 64.5C412.828 64.5 413.5 63.8284 413.5 63C413.5 62.1716 412.828 61.5 412 61.5C411.172 61.5 410.5 62.1716 410.5 63C410.5 63.8284 411.172 64.5 412 64.5Z" fill="black"/>
</g>
<defs>
<clipPath id="clip0_4_2">
<rect width="413.5" height="320.305" fill="white"/>
</clipPath>
</defs>
</svg>
