<svg width="203" height="74" viewBox="0 0 203 74" fill="none" xmlns="http://www.w3.org/2000/svg">
    <path fill-rule="evenodd" clip-rule="evenodd"
        d="M26.7633 3.92691C13.6406 19.3379 1.0584 38.4489 0.93223 52.7337C0.883091 58.1084 2.59897 62.8005 6.71467 66.3545C12.6379 71.4729 19.1641 73.2777 25.6584 73.2884C35.1488 73.3016 44.5728 69.4728 51.9516 66.5205C64.3784 61.5508 201.745 1.89761 201.745 1.89761C203.071 1.23357 202.822 0.406183 201.164 0.819215C200.494 0.986552 51.6183 41.3322 51.6183 41.3322C48.7983 42.1297 45.8844 42.5469 42.9539 42.5726C31.5125 42.6403 21.3315 36.2895 21.4138 22.9064C21.4457 17.6698 23.0487 11.3548 26.7633 3.92691Z"
        fill="#DAE85E" stroke="#DAE85E" stroke-width="0.00255995" />
</svg>