<svg width="30" height="30" viewBox="0 0 30 30" fill="none" xmlns="http://www.w3.org/2000/svg">
<path d="M21.961 21.211V13.6172H20.379C20.535 14.1094 20.613 14.6211 20.613 15.1524C20.613 16.1368 20.363 17.045 19.863 17.877C19.363 18.709 18.683 19.3672 17.824 19.8516C16.965 20.336 16.027 20.5782 15.011 20.5782C13.472 20.5782 12.156 20.0489 11.062 18.9903C9.968 17.9317 9.422 16.6524 9.422 15.1524C9.422 14.6211 9.5 14.1094 9.656 13.6172H8.004V21.211C8.004 21.4141 8.072 21.584 8.209 21.7207C8.345 21.8575 8.515 21.9258 8.718 21.9258H21.246C21.441 21.9258 21.609 21.8575 21.75 21.7207C21.89 21.584 21.961 21.4141 21.961 21.211ZM17.572 17.4434C17.572 17.4434 17.749 17.2725 18.102 16.9307C18.456 16.5889 18.633 15.9336 18.633 14.9649C18.633 13.9961 18.279 13.17 17.572 12.4864C16.865 11.8028 16.011 11.461 15.011 11.461C14.019 11.461 13.17 11.8028 12.463 12.4864C11.756 13.17 11.402 13.9961 11.402 14.9649C11.402 15.9336 11.756 16.7598 12.463 17.4434C13.17 18.127 14.019 18.4688 15.011 18.4688C16.011 18.4688 16.865 18.127 17.572 17.4434ZM21.961 10.7461V8.8125C21.961 8.59375 21.883 8.4043 21.726 8.24414C21.57 8.08399 21.379 8.00391 21.152 8.00391H19.113C18.886 8.00391 18.695 8.08399 18.539 8.24414C18.383 8.4043 18.304 8.59375 18.304 8.8125V10.7461C18.304 10.9727 18.383 11.1641 18.539 11.3203C18.695 11.4766 18.886 11.5547 19.113 11.5547H21.152C21.379 11.5547 21.57 11.4766 21.726 11.3203C21.883 11.1641 21.961 10.9727 21.961 10.7461ZM24 8.3086V21.6914C24 22.3243 23.773 22.8672 23.32 23.3203C22.867 23.7735 22.324 24 21.691 24H8.308C7.676 24 7.133 23.7735 6.679 23.3203C6.226 22.8672 6 22.3243 6 21.6914V8.3086C6 7.67578 6.226 7.13281 6.679 6.67969C7.133 6.22656 7.676 6 8.308 6H21.691C22.324 6 22.867 6.22656 23.32 6.67969C23.773 7.13281 24 7.67578 24 8.3086Z" fill="#DAE85E"/>
</svg>
