<svg width="200" height="200" viewBox="0 0 200 200" fill="none" xmlns="http://www.w3.org/2000/svg">
<g clip-path="url(#clip0_7_2)">
<path d="M137.907 97.9337L82.9075 60.4337C82.14 59.9137 81.15 59.8562 80.33 60.2887C79.5125 60.7212 79 61.5712 79 62.4987V137.499C79 138.426 79.5125 139.276 80.3325 139.709C80.6975 139.904 81.1 139.999 81.5 139.999C81.9925 139.999 82.485 139.851 82.9075 139.564L137.907 102.064C138.59 101.599 139 100.826 139 99.9987C139 99.1712 138.59 98.3987 137.907 97.9337Z" fill="white"/>
<path d="M100 0C44.86 0 0 44.86 0 100C0 155.14 44.86 200 100 200C155.14 200 200 155.14 200 100C200 44.86 155.14 0 100 0ZM100 193.333C48.5367 193.333 6.66667 151.463 6.66667 100C6.66667 48.5367 48.5367 6.66667 100 6.66667C151.463 6.66667 193.333 48.5367 193.333 100C193.333 151.463 151.463 193.333 100 193.333Z" fill="white" stroke="white" stroke-width="0.2"/>
</g>
<defs>
<clipPath id="clip0_7_2">
<rect width="200" height="200" fill="white"/>
</clipPath>
</defs>
</svg>
