<svg width="30" height="30" viewBox="0 0 30 30" fill="none" xmlns="http://www.w3.org/2000/svg">
<path d="M22.8366 22.7277C22.817 22.6949 22.8039 22.6688 22.7843 22.6427L18.8693 16.9433C18.1634 15.9107 17.451 14.8846 16.7451 13.8518C16.7255 13.8257 16.719 13.8061 16.732 13.8257C17.7255 12.6753 18.7125 11.525 19.7058 10.3747L22.2679 7.40088C22.3007 7.3682 22.3921 7.2767 22.3399 7.14598C22.3138 7.07408 22.2484 6.98912 22.0653 7.00219H21.6732C21.4445 7.00219 21.2222 7.00219 20.9935 7.00219C20.8235 6.99565 20.719 7.05448 20.6079 7.1852C20.3137 7.5316 20.0131 7.878 19.7189 8.22441L15.9215 12.6427L15.1634 11.5381C14.1699 10.0937 13.183 8.65578 12.1961 7.21134C12.0784 7.06755 11.9608 7.00219 11.7974 7.00219C10.8693 7.00219 9.93464 7.00219 9.00654 7.00219H7.50981C7.37255 6.98912 7.28105 7.03487 7.24183 7.13291C7.18301 7.26363 7.26798 7.3682 7.31373 7.42049L9.30065 10.3159C10.5686 12.1655 11.8366 14.0087 13.1111 15.8976C12.817 16.2309 12.5294 16.5643 12.2419 16.8976L8.42484 21.3355C8.15033 21.6557 7.86928 21.9825 7.59478 22.3093L7 23.0152H8.8366L9.1634 22.6296C9.35948 22.3943 9.55556 22.159 9.75817 21.9303L12.6406 18.5773L13.6275 17.4336C13.7321 17.3158 13.83 17.2048 13.9412 17.0675C14.5229 17.9172 15.1046 18.7668 15.6863 19.6165L17.8562 22.7734C17.8758 22.806 17.8954 22.8388 17.9151 22.8779L17.9935 23.0152H23L22.8366 22.7277ZM18.8366 21.6557C17.183 19.2897 15.5294 16.9237 13.8759 14.5578L9.56209 8.38781H10.1569C10.4837 8.38781 10.804 8.38781 11.1242 8.38781C11.17 8.38781 11.1961 8.39434 11.2288 8.44009C13.6928 11.9629 16.1504 15.4793 18.6144 18.9957L20.5032 21.6949C20.3399 21.6949 20.1699 21.6949 20.0066 21.6949H19.5425C19.3399 21.6949 19.1372 21.6949 18.9346 21.6949C18.8824 21.7015 18.8627 21.6949 18.8366 21.6557ZM22.0458 7.17212C22.0392 7.17212 22.0327 7.17212 22.0327 7.17212C22.0327 7.17212 22.0327 7.16559 22.0392 7.16559L22.0458 7.17212Z" fill="#DAE85E"/>
</svg>
