<svg width="30" height="30" viewBox="0 0 30 30" fill="none" xmlns="http://www.w3.org/2000/svg">
<path d="M17.4822 18.4956V20.615C17.4822 21.0636 17.3516 21.288 17.0904 21.288C16.9364 21.288 16.7857 21.2143 16.6384 21.067V18.0436C16.7857 17.8962 16.9364 17.8226 17.0904 17.8226C17.3516 17.8226 17.4822 18.0469 17.4822 18.4956ZM20.8773 18.5056V18.9677H19.9732V18.5056C19.9732 18.0503 20.1239 17.8226 20.4253 17.8226C20.7266 17.8226 20.8773 18.0503 20.8773 18.5056ZM11.1741 16.3159H12.2489V15.3717H9.115V16.3159H10.1697V22.0313H11.1741V16.3159ZM14.067 22.0313H14.961V17.0692H14.067V20.8661C13.8661 21.1474 13.6753 21.288 13.4945 21.288C13.3739 21.288 13.3036 21.2177 13.2835 21.077C13.2768 21.057 13.2735 20.9398 13.2735 20.7255V17.0692H12.3795V20.9967C12.3795 21.3248 12.4063 21.5692 12.4599 21.7299C12.5402 21.9777 12.7344 22.1016 13.0424 22.1016C13.3639 22.1016 13.7054 21.8974 14.067 21.4889V22.0313ZM18.3761 20.5447V18.5659C18.3761 18.077 18.346 17.7456 18.2857 17.5715C18.1719 17.1965 17.9342 17.009 17.5726 17.009C17.2378 17.009 16.9264 17.1898 16.6384 17.5514V15.3717H15.7445V22.0313H16.6384V21.5491C16.9398 21.9174 17.2511 22.1016 17.5726 22.1016C17.9342 22.1016 18.1719 21.9174 18.2857 21.5491C18.346 21.3683 18.3761 21.0335 18.3761 20.5447ZM21.7712 20.4442V20.3136H20.8572C20.8572 20.6552 20.8505 20.8594 20.8371 20.9264C20.7902 21.1674 20.6563 21.288 20.4353 21.288C20.1273 21.288 19.9732 21.057 19.9732 20.5949V19.721H21.7712V18.6864C21.7712 18.1574 21.6808 17.769 21.5 17.5212C21.2389 17.1797 20.884 17.009 20.4353 17.009C19.9799 17.009 19.6217 17.1797 19.3605 17.5212C19.173 17.769 19.0793 18.1574 19.0793 18.6864V20.4241C19.0793 20.9532 19.1764 21.3415 19.3706 21.5893C19.6317 21.9308 19.9933 22.1016 20.4554 22.1016C20.9375 22.1016 21.2991 21.9241 21.5402 21.5692C21.6607 21.3884 21.7311 21.2076 21.7511 21.0268C21.7645 20.9665 21.7712 20.7724 21.7712 20.4442ZM15.6641 11.2735V9.16407C15.6641 8.70201 15.5201 8.47098 15.2322 8.47098C14.9442 8.47098 14.8003 8.70201 14.8003 9.16407V11.2735C14.8003 11.7422 14.9442 11.9766 15.2322 11.9766C15.5201 11.9766 15.6641 11.7422 15.6641 11.2735ZM22.8862 18.817C22.8862 20.384 22.7991 21.5558 22.625 22.3326C22.5313 22.7277 22.3371 23.0592 22.0424 23.327C21.7478 23.5949 21.4063 23.7489 21.0179 23.7891C19.7857 23.9297 17.9275 24 15.4431 24C12.9587 24 11.1005 23.9297 9.8683 23.7891C9.4799 23.7489 9.1368 23.5949 8.8388 23.327C8.5408 23.0592 8.3482 22.7277 8.2612 22.3326C8.0871 21.5826 8 20.4107 8 18.817C8 17.25 8.0871 16.0782 8.2612 15.3014C8.3549 14.9063 8.5491 14.5748 8.8438 14.307C9.1384 14.0391 9.4833 13.8817 9.8784 13.8349C11.1038 13.7009 12.9587 13.634 15.4431 13.634C17.9275 13.634 19.7857 13.7009 21.0179 13.8349C21.4063 13.8817 21.7495 14.0391 22.0475 14.307C22.3455 14.5748 22.538 14.9063 22.625 15.3014C22.7991 16.0514 22.8862 17.2232 22.8862 18.817ZM12.8616 6H13.8862L12.6708 10.0078V12.7299H11.6663V10.0078C11.5726 9.51227 11.3683 8.80246 11.0536 7.87835C10.8058 7.18862 10.5882 6.5625 10.4007 6H11.4654L12.1786 8.64174L12.8616 6ZM16.5782 9.34487V11.1027C16.5782 11.6451 16.4844 12.0402 16.2969 12.288C16.0491 12.6295 15.6942 12.8003 15.2322 12.8003C14.7835 12.8003 14.432 12.6295 14.1775 12.288C13.99 12.0335 13.8962 11.6384 13.8962 11.1027V9.34487C13.8962 8.80915 13.99 8.41741 14.1775 8.16965C14.432 7.82813 14.7835 7.65737 15.2322 7.65737C15.6942 7.65737 16.0491 7.82813 16.2969 8.16965C16.4844 8.41741 16.5782 8.80915 16.5782 9.34487ZM19.9431 7.71764V12.7299H19.0291V12.1775C18.6741 12.5927 18.3293 12.8003 17.9945 12.8003C17.6864 12.8003 17.4889 12.6764 17.4018 12.4286C17.3482 12.2679 17.3215 12.0168 17.3215 11.6753V7.71764H18.2355V11.4041C18.2355 11.625 18.2389 11.7422 18.2456 11.7556C18.2657 11.9029 18.336 11.9766 18.4565 11.9766C18.6373 11.9766 18.8282 11.8326 19.0291 11.5447V7.71764H19.9431Z" fill="#DAE85E"/>
</svg>
